<?xml version="1.0" standalone="no"?>
<!DOCTYPE svg PUBLIC "-//W3C//DTD SVG 20010904//EN"
 "http://www.w3.org/TR/2001/REC-SVG-20010904/DTD/svg10.dtd">
<svg version="1.0" xmlns="http://www.w3.org/2000/svg"
 width="264.000000pt" height="264.000000pt" viewBox="0 0 264.000000 264.000000"
 preserveAspectRatio="xMidYMid meet">
<metadata>
Created by potrace 1.11, written by Peter Selinger 2001-2013
</metadata>
<g transform="translate(0.000000,264.000000) scale(0.100000,-0.100000)"
fill="#000000" stroke="none">
<path d="M1893 2299 c-24 -12 -52 -37 -65 -57 l-23 -37 -3 -502 c-3 -494 -3
-502 18 -523 24 -24 34 -25 54 -4 14 14 16 74 16 518 0 398 3 506 13 520 21
28 95 32 135 7 l32 -21 -2 -881 c-3 -825 -4 -883 -20 -893 -14 -9 -23 -6 -42
14 -17 16 -145 317 -375 877 -193 469 -359 870 -370 892 -41 79 -110 113 -188
92 -82 -22 -123 -76 -123 -161 0 -44 24 -111 159 -438 392 -953 475 -1171 466
-1218 -11 -63 -89 -86 -139 -41 -19 16 -111 238 -360 865 -184 464 -349 868
-368 899 -48 81 -116 102 -172 54 -47 -41 -46 -15 -46 -939 l0 -869 23 -34
c28 -42 98 -79 152 -79 49 0 111 28 145 64 l25 28 0 460 c0 428 -1 462 -18
472 -12 8 -22 8 -35 0 -16 -10 -17 -47 -22 -458 l-5 -448 -24 -19 c-35 -29
-105 -26 -136 6 l-25 24 0 845 c0 525 4 854 10 870 12 32 35 33 54 4 8 -13
170 -417 361 -898 369 -932 366 -926 443 -951 107 -35 211 33 220 143 4 50
-11 91 -308 833 -172 429 -315 796 -317 816 -7 51 30 93 82 93 26 0 43 -6 54
-21 9 -11 174 -402 365 -869 192 -467 359 -870 372 -895 13 -26 38 -59 56 -74
66 -56 162 -13 188 84 7 27 9 316 8 904 -3 856 -3 866 -24 894 -49 68 -161 92
-241 52z"/>
</g>
</svg>
